<?xml version="1.0" standalone="no"?>
<!DOCTYPE svg PUBLIC "-//W3C//DTD SVG 20010904//EN"
 "http://www.w3.org/TR/2001/REC-SVG-20010904/DTD/svg10.dtd">
<svg version="1.0" xmlns="http://www.w3.org/2000/svg"
 width="700.000000pt" height="700.000000pt" viewBox="0 0 700.000000 700.000000"
 preserveAspectRatio="xMidYMid meet">
<metadata>
Created by potrace 1.14, written by Peter Selinger 2001-2017
</metadata>
<g transform="translate(0.000000,700.000000) scale(0.100000,-0.100000)"
fill="#000000" stroke="none">
<path d="M3665 6988 c-16 -6 -173 -106 -350 -223 -176 -116 -367 -242 -425
-280 -58 -38 -235 -155 -395 -260 -159 -105 -362 -238 -449 -295 -88 -58 -255
-168 -372 -245 l-212 -140 -722 -1083 c-397 -596 -726 -1097 -730 -1113 -13
-46 -5 -158 17 -220 42 -123 71 -157 531 -620 389 -392 450 -448 490 -462 26
-9 119 -41 207 -72 88 -31 183 -64 210 -73 28 -9 50 -21 51 -27 4 -72 117
-337 206 -483 87 -143 90 -145 967 -1010 l384 -378 1309 1 1310 0 55 170 c30
94 99 307 153 475 54 168 102 317 105 332 10 40 4 37 170 88 63 19 643 203
756 239 l66 22 2 1332 1 1333 -597 595 c-618 616 -650 644 -833 746 -114 63
-370 163 -417 163 -7 0 -13 6 -13 13 0 8 -15 56 -34 108 -19 52 -58 160 -87
241 l-52 148 -423 416 c-233 230 -450 437 -481 461 -83 62 -199 105 -293 108
-41 2 -88 -2 -105 -7z"/>
</g>
</svg>
