<svg xmlns="http://www.w3.org/2000/svg" width="1024" height="1024" viewBox="0 0 1024 1024"><path d="M280.6,278.8,214,212.6l.3,478.4.8,22.4c.3,10.5,2.3,22.4,5.5,34.7L748.5,933l132-58.1v-.2l-600-595.9" style="fill:#00d2b8"/><path d="M220.6,748.1h.1a1.9,1.9,0,0,1-.2-.7C220.5,747.6,220.6,747.8,220.6,748.1ZM880.5,874.9,748.5,933,220.7,748.1c10,38.4,32.4,81.6,56.4,105.2l172.3,170.2,383,.5,48.2-149.3v.2Z" style="fill:#55ddca"/><path d="M8.8,520.5c-17,18.1-8.6,55.4,18.9,82.9L146.1,722l74.5,26.1c-3.2-12.3-5.2-24.2-5.5-34.7l-.8-22.4L214,212.6,8.8,520.5Z" style="fill:#0081c6"/><path d="M752.9,218.7a173.5,173.5,0,0,0-35.1-5.4l-23.7-.8H214L880.6,874.7h.1l58.5-131.2L752.9,218.7" style="fill:#0079b3"/><path d="M752.3,218.6l.6.2h-.6Zm106.5,56.3c-24.2-24.2-67.1-46.2-105.9-56.1L939.2,743.5,880.7,874.7h-.1l143.1-45.4.3-389.6L858.8,274.9Z" style="fill:#00a4e4"/><path d="M726.8,145.2,607.4,27.4C579.8.3,542.2-8.2,524,8.7L214,212.6H694.1l23.7.8a173.5,173.5,0,0,1,35.1,5.4l-26.1-73.5Z" style="fill:#00d2b8"/></svg>