<svg xmlns="http://www.w3.org/2000/svg" width="2500" height="2500" viewBox="0 0 2500 2500"><path d="M688.8,680.6,527.2,519l.7,1168,1.9,54.6c.8,25.7,5.6,54.7,13.6,84.7l1280.3,451.5,320-141.8v-.4l-1455-1455" style="fill:#00d2b8"/><path d="M543.4,1826.3h0c0-.5-.3-1.1-.3-1.7A4.1,4.1,0,0,0,543.4,1826.3ZM2143.7,2136l-320,141.8L543.4,1826.4c24.5,93.8,78.6,199.3,136.9,257l417.8,415.4,929,1.2,116.7-364.4v.4Z" style="fill:#55ddca"/><path d="M29.6,1270.7c-41.3,44.1-20.8,135.2,45.8,202.3l287.3,289.7,180.7,63.6c-8-30-12.8-59-13.6-84.7l-1.9-54.6-.7-1168L29.6,1270.7Z" style="fill:#0081c6"/><path d="M1834.2,534c-30.1-7.6-58.9-12.4-85-13.2l-57.7-2L527.2,519,2144,2135.6h.1l142-320.4L1834.2,534" style="fill:#0079b3"/><path d="M1832.7,533.7l1.5.4h0l-1.5-.3ZM2091,671.2c-58.7-59.1-162.8-112.9-256.8-137.1l451.9,1281.1-142,320.4h-.1l347-110.8.7-951.4L2091,671.2Z" style="fill:#00a4e4"/><path d="M1770.9,354.5,1481.3,67c-67-66.3-158.1-87-202.2-45.7L527.2,519l1164.3-.2,57.7,2c26.1.8,54.9,5.6,85,13.2l-63.3-179.5Z" style="fill:#00d2b8"/></svg>